# xmcd
#
# Track frame offsets:
#	150
#	13440
#	30287
#	48295
#	70550
#	88225
#	104527
#	123537
#	141577
#	157834
#	177517
#	195555
#	207852
#	221662
#	239032
#
# Disc length: 3358 seconds
#
# Revision: 1
# Processed by: cddbd v1.5.2PL0 Copyright (c) Steve Scherf et al.
# Submitted via: audiograbber 1.83.01
#
DISCID=dd0d1c0f
DTITLE=Sound Choice - SC8398
DYEAR=1900
DGENRE=
TTITLE0=Judds - Rockin' With The Rhythm Of The Rain
TTITLE1=Highway101 - The Bed You Made For Me
TTITLE2=Tucker, Tanya - If It Don't Come Easy
TTITLE3=Mattea, Kathy - Goin' Gone
TTITLE4=Wariner, Steve - Life's Highway
TTITLE5=Fricke, Janie - He's A Heartache
TTITLE6=Newton, Juice - Break It To Me Gently
TTITLE7=Thomas, B J - Another Somebody Done Somebody Wrong Song
TTITLE8=Cash, Roseanne - If You Change Your Mind
TTITLE9=Murray, Anne - Broken Hearted Me
TTITLE10=Bellamy Brothers - Redneck Girl
TTITLE11=Hart, Freddie - Easy Loving
TTITLE12=Forester Sisters - Just In Case
TTITLE13=Greenwood, Lee - It Turns Me Inside Out
TTITLE14=McEntire, Reba - Can't Even Get The Blues No More
EXTD=
EXTT0=
EXTT1=
EXTT2=
EXTT3=
EXTT4=
EXTT5=
EXTT6=
EXTT7=
EXTT8=
EXTT9=
EXTT10=
EXTT11=
EXTT12=
EXTT13=
EXTT14=
PLAYORDER=
